<svg xmlns="http://www.w3.org/2000/svg" width="32" height="32" enable-background="new 0 0 32 32" viewBox="0 0 32 32" id="search"><path fill="#455A64" d="M21.011,21.01c-0.195,0.196-0.195,0.512,0,0.708l2.414,2.414c0.195,0.195,0.512,0.195,0.707,0
								s0.195-0.512,0-0.707l-2.414-2.415C21.522,20.814,21.206,20.814,21.011,21.01z"></path><path fill="#FF8A80" d="M29.914,27.086l-3.5-3.5c-0.756-0.756-2.072-0.756-2.828,0C23.208,23.964,23,24.466,23,25
							s0.208,1.036,0.586,1.414l3.5,3.5c0.378,0.378,0.88,0.586,1.414,0.586s1.036-0.208,1.414-0.586S30.5,29.034,30.5,28.5
							S30.292,27.464,29.914,27.086z"></path><path fill="#E67C73" d="M30.414,28.414C30.036,28.792,29.534,29,29,29s-1.036-0.208-1.414-0.586l-4-4
							c-0.125-0.124-0.223-0.266-0.309-0.414C23.102,24.302,23,24.642,23,25c0,0.534,0.208,1.036,0.586,1.414l3.5,3.5
							c0.378,0.378,0.88,0.586,1.414,0.586s1.036-0.208,1.414-0.586S30.5,29.034,30.5,28.5c0-0.058-0.012-0.113-0.017-0.17
							C30.459,28.357,30.44,28.388,30.414,28.414z"></path><path fill="#455A64" d="M28.5,31c-0.667,0-1.295-0.26-1.768-0.732l-3.5-3.5C22.76,26.295,22.5,25.668,22.5,25
							s0.26-1.295,0.732-1.768c0.906-0.906,2.629-0.906,3.535,0l3.5,3.5C30.74,27.205,31,27.832,31,28.5s-0.26,1.295-0.732,1.768
							S29.167,31,28.5,31z M25,23.52c-0.407,0-0.793,0.152-1.061,0.42C23.656,24.223,23.5,24.6,23.5,25s0.156,0.777,0.439,1.061
							l3.5,3.5c0.567,0.566,1.554,0.566,2.121,0C29.844,29.277,30,28.9,30,28.5s-0.156-0.777-0.439-1.061l-3.5-3.5
							C25.793,23.672,25.407,23.52,25,23.52z"></path><path fill="#FFAFA9" d="M28.254,26.547l-2.5-2.5c-0.195-0.195-0.512-0.195-0.707,0s-0.195,0.512,0,0.707l2.5,2.5
							c0.098,0.098,0.225,0.146,0.354,0.146c0.127,0,0.256-0.049,0.354-0.146C28.449,27.059,28.449,26.742,28.254,26.547z"></path><circle cx="13" cy="13" r="11.5" fill="#ECEFF1"></circle><path fill="#ECEFF1" d="M21.611,15.615C20.486,19.282,17.057,21.95,13,21.95L21.611,15.615z"></path><path fill="#455A64" d="M13,22.45c-0.276,0-0.5-0.224-0.5-0.5s0.224-0.5,0.5-0.5c3.767,0,7.035-2.404,8.133-5.981
							c0.081-0.264,0.361-0.415,0.625-0.331c0.264,0.081,0.413,0.36,0.332,0.624C20.861,19.763,17.209,22.45,13,22.45z"></path><path fill="#FFF" d="M4,15C4,8.923,8.924,4,15,4c3.255,0,6.171,1.422,8.185,3.668C21.263,4.003,17.427,1.5,13,1.5
						C6.647,1.5,1.5,6.646,1.5,13c0,4.428,2.503,8.263,6.168,10.185C5.421,21.171,4,18.256,4,15z"></path><path fill="#455A64" d="M13,25C6.383,25,1,19.617,1,13S6.383,1,13,1s12,5.383,12,12S19.617,25,13,25z M13,2
						C6.935,2,2,6.935,2,13s4.935,11,11,11s11-4.935,11-11S19.065,2,13,2z"></path><circle cx="22" cy="13" r=".5" fill="#455A64"></circle></svg>